<svg width="103" height="30" viewBox="0 0 103 30" fill="none" xmlns="http://www.w3.org/2000/svg">
<g clip-path="url(#clip0_482_4736)">
<path d="M24.1079 10.0899C24.1079 7.91766 24.1638 6.46965 21.9908 6.46965H21.2676V5.7454H24.1079C25.9183 5.7454 26.8232 6.28815 27.1863 7.19366H27.3675C28.2724 6.28815 29.9051 5.38416 32.0796 5.38416C35.1575 5.38416 38.2384 6.64964 38.2384 11.8992V23.0976H34.9763V11.8992C34.9763 8.2789 32.9848 7.01342 30.9923 7.01342C29.5425 7.01342 28.2717 7.91741 27.3667 8.9304V23.0976H24.1069V10.0899H24.1079Z" fill="#EE2424"/>
<path d="M6.52219 23.1199C3.62271 23.1199 1.81287 22.5774 0.907959 21.6722C0.00304279 20.7669 0 20.1005 0 18.2915H0.726267C1.08661 20.6437 2.71779 21.6722 5.79872 21.6722C8.51626 21.6722 9.78456 20.5867 9.78456 19.1384C9.78456 17.6902 8.69795 16.7847 6.52219 15.8807L4.34898 14.9746C1.63118 13.8529 0 12.4396 0 10.0886C0 7.01239 2.53762 5.38287 5.98016 5.38287C8.69795 5.38287 10.508 5.92562 11.4157 6.83113C12.3234 7.73664 12.3207 8.40057 12.3207 10.2116H11.5972C11.234 7.85782 9.60286 6.83113 6.70363 6.83113C4.34897 6.83113 3.08092 7.91638 3.08092 9.36464C3.08092 10.6301 4.16753 11.6806 5.98016 12.4409L8.15312 13.3464C11.234 14.6139 12.8655 15.8814 12.8655 18.4165C12.8655 21.493 10.1477 23.1207 6.52143 23.1207L6.52219 23.1199Z" fill="#EE2424"/>
<path d="M19.8647 23.0976H16.6051V10.0899C16.6051 7.91766 16.661 6.46965 14.4877 6.46965H13.7617V5.74539H16.6051C19.1412 5.74539 19.8647 6.46965 19.8647 10.0899V23.0979V23.0976Z" fill="#EE2424"/>
<path d="M47.6457 6.64936C45.6517 6.64936 44.0233 7.73612 44.0233 10.8124C44.0233 13.8886 45.6517 14.9756 47.6457 14.9756C49.6398 14.9756 51.2684 13.8886 51.2684 10.8124C51.2684 7.91737 49.6372 6.64936 47.6457 6.64936ZM46.0145 20.0449C44.2017 20.7677 42.9339 22.0357 42.9339 24.3879C42.9339 27.2842 44.9282 28.551 47.6457 28.551C50.3633 28.551 52.355 27.2835 52.355 24.3879C52.355 22.0357 50.9056 20.5877 48.0063 20.2259L46.0145 20.0449ZM47.6457 5.38387H53.9268V6.28735L51.995 6.64936V6.83213C53.4437 7.55461 54.5305 9.00287 54.5305 10.8121C54.5305 14.9754 51.4501 16.2442 47.6457 16.2442C45.1068 16.2442 43.8416 16.6054 43.8416 17.5117C43.8416 18.418 45.1068 18.7772 47.6457 18.7772C51.995 18.7772 55.6169 20.4064 55.6169 24.3885C55.6169 28.5515 52.1736 29.9997 47.6457 29.9997C43.1178 29.9997 39.6748 28.551 39.6748 24.3874C39.6748 22.0352 41.4849 20.4054 43.6589 19.6817C42.9354 19.3202 42.2124 18.5959 42.2124 17.5107C42.2124 16.4254 42.9359 15.8812 43.4812 15.5199C42.0315 14.7936 40.7634 13.1654 40.7634 10.8119C40.7634 6.64885 43.8444 5.38336 47.6485 5.38336L47.6457 5.38387Z" fill="#EE2424"/>
<path d="M63.5691 23.1199C60.6698 23.1199 58.8598 22.5774 57.952 21.6722C57.0443 20.7669 57.0469 20.521 57.0469 18.7115H57.7701C58.1335 21.0635 59.7647 21.6722 62.8453 21.6722C65.5631 21.6722 66.8312 20.5867 66.8312 19.1384C66.8312 17.6902 65.742 16.7847 63.5688 15.8807L61.3969 14.9757C58.6793 13.8539 57.0479 12.4406 57.0479 10.0896C57.0479 7.0134 59.584 5.38388 63.0253 5.38388C65.7433 5.38388 67.5585 5.92663 68.4636 6.83214C69.3688 7.73765 69.3688 7.98304 69.3688 9.79254H68.6413C68.2812 7.43903 66.6497 6.83214 63.7505 6.83214C61.3969 6.83214 60.1281 7.91739 60.1281 9.36565C60.1281 10.6311 61.2147 11.6816 63.0245 12.4419L65.2003 13.3474C68.2814 14.6149 69.9124 15.8824 69.9124 18.4175C69.9124 21.494 67.192 23.1217 63.5683 23.1217L63.5691 23.1199Z" fill="#EE2424"/>
<path d="M80.3614 23.1199L74.7449 9.00288C74.0214 7.19338 72.5717 6.28787 70.7588 6.10662V5.38388H73.8395C76.0127 5.38388 77.4624 6.46938 78.1882 8.27888L82.1743 18.2339L86.8836 5.74512H88.6962L81.448 25.1127C79.962 29.0945 78.3673 30 75.831 30H74.7449V28.9145C76.9176 28.9145 78.513 28.189 79.6382 25.112L80.3617 23.1209L80.3614 23.1199Z" fill="#EE2424"/>
<path d="M96.6595 23.1199C93.7603 23.1199 91.9476 22.5774 91.0397 21.6722C90.1317 20.7669 90.1348 20.521 90.1348 18.7115H90.861C91.2242 21.0635 92.8526 21.6722 95.9335 21.6722C98.651 21.6722 99.9193 20.5867 99.9193 19.1384C99.9193 17.6902 98.8327 16.7847 96.6595 15.8807L94.4837 14.9746C91.7659 13.8529 90.1348 12.4396 90.1348 10.0886C90.1348 7.01239 92.6709 5.38287 96.1149 5.38287C98.8327 5.38287 100.646 5.92562 101.551 6.83113C102.455 7.73664 102.455 7.98204 102.455 9.79154H101.732C101.369 7.43802 99.7376 6.83113 96.8384 6.83113C94.4837 6.83113 93.2159 7.91638 93.2159 9.36464C93.2159 10.6301 94.3023 11.6806 96.1149 12.4409L98.2879 13.3464C101.369 14.6139 103 15.8814 103 18.4165C103 21.493 100.282 23.1207 96.6595 23.1207V23.1199Z" fill="#EE2424"/>
<path d="M15.2314 1.97276C15.2314 1.71369 15.2825 1.45714 15.3817 1.21778C15.4809 0.978426 15.6264 0.760942 15.8098 0.577749C15.9932 0.394556 16.2109 0.249246 16.4505 0.150115C16.6901 0.050984 16.9469 -2.66268e-05 17.2062 1.04269e-08C17.4655 8.28749e-09 17.7223 0.0510302 17.9619 0.150174C18.2015 0.249317 18.4192 0.394632 18.6025 0.577823C18.7859 0.761014 18.9313 0.978492 19.0305 1.21784C19.1297 1.45718 19.1808 1.7137 19.1807 1.97276C19.1803 2.49568 18.972 2.99703 18.6017 3.36665C18.2314 3.73627 17.7294 3.94393 17.206 3.94399C16.6826 3.94386 16.1806 3.73617 15.8104 3.36656C15.4401 2.99695 15.2319 2.49564 15.2314 1.97276Z" fill="#EE2424"/>
<path d="M9.8041 19.1399C9.8041 20.5882 8.53326 21.6737 5.81547 21.6737C4.17033 21.6737 2.94415 21.3763 2.0976 20.7456C1.64083 20.9941 1.19488 21.2456 0.759766 21.5003C0.810518 21.5576 0.865838 21.6149 0.924457 21.6737C1.82963 22.579 3.64225 23.1214 6.54173 23.1214C10.1644 23.1214 12.8822 21.4937 12.8822 18.4172C12.8822 17.6192 12.7201 16.9494 12.4047 16.3638C11.2986 16.7336 10.2259 17.1177 9.1867 17.5163C9.59729 17.985 9.8041 18.5097 9.8041 19.1387V19.1399Z" fill="#BA2025"/>
<path d="M16.6226 14.9001V23.0976H19.8816V14.0633C18.7727 14.3298 17.6862 14.6087 16.6221 14.8999L16.6226 14.9001Z" fill="#BA2025"/>
<path d="M34.9957 11.8992V23.0976H38.2581V11.8992C38.2581 11.5696 38.2441 11.256 38.2218 10.9589C37.1268 11.0497 36.0441 11.1511 34.9736 11.2631C34.9876 11.4659 34.996 11.6789 34.996 11.8992H34.9957Z" fill="#BA2025"/>
<path d="M27.3874 12.2647C26.284 12.442 25.1966 12.6303 24.125 12.8298V23.0966H27.3874V12.2647Z" fill="#BA2025"/>
<path d="M46.0312 20.045L48.0253 20.226C50.9248 20.5877 52.3717 22.0357 52.3717 24.3875C52.3717 27.2837 50.3799 28.5505 47.6622 28.5505C44.9444 28.5505 42.9531 27.283 42.9531 24.3875C42.9531 22.0352 44.2219 20.7672 46.0312 20.0444V20.045ZM51.2841 10.8124C51.2841 13.8886 49.656 14.9757 47.6614 14.9757C45.6668 14.9757 44.0392 13.8886 44.0392 10.8124C44.0392 10.7077 44.0448 10.6114 44.0501 10.5125C42.9527 10.5487 41.8643 10.5966 40.7849 10.6562C40.7849 10.7092 40.7766 10.7576 40.7766 10.8124C40.7766 13.1659 42.0474 14.7942 43.4944 15.5204C42.9526 15.8817 42.2256 16.4244 42.2256 17.5112C42.2256 18.598 42.9518 19.3207 43.6753 19.6822C41.5023 20.4059 39.6895 22.0357 39.6895 24.388C39.6895 28.551 43.1333 29.9992 47.6609 29.9992C52.1885 29.9992 55.6333 28.551 55.6333 24.3875C55.6333 20.4054 52.0114 18.7762 47.6622 18.7762C45.1263 18.7762 43.858 18.4162 43.858 17.5107C43.858 16.6052 45.1268 16.2432 47.6622 16.2432C51.4686 16.2432 54.5467 14.9744 54.5467 10.8111C54.5467 10.7008 54.5439 10.5934 54.5356 10.4861C53.4549 10.454 52.3666 10.4326 51.2709 10.422C51.2795 10.5487 51.2849 10.6773 51.2849 10.8111L51.2841 10.8124Z" fill="#BA2025"/>
<path d="M61.4128 14.9757L63.5889 15.8817C65.7618 16.7857 66.8484 17.6909 66.8484 19.14C66.8484 20.589 65.5796 21.6737 62.8644 21.6737C59.7834 21.6737 58.1525 21.0653 57.7891 18.7131H57.0664C57.0664 20.5226 57.0664 20.7682 57.9716 21.6737C58.8767 22.5792 60.6894 23.12 63.5889 23.12C67.2116 23.12 69.9294 21.4922 69.9294 18.4157C69.9294 15.8807 68.2982 14.6132 65.2198 13.3457L63.044 12.4401C61.994 12.0008 61.1916 11.4621 60.698 10.8413C59.5082 10.7536 58.3081 10.6787 57.0976 10.6167C57.3293 12.6564 58.9075 13.9376 61.4128 14.9739V14.9757Z" fill="#BA2025"/>
<path d="M83.657 14.3487L82.1905 18.2349L80.3221 13.5662C78.9952 13.276 77.6387 13.0039 76.2525 12.7499L80.3807 23.1199L79.6542 25.1109C78.5315 28.1872 76.9366 28.9135 74.7637 28.9135V29.999H75.85C78.3864 29.999 79.9813 29.0935 81.4643 25.1117L85.3301 14.7843C84.7796 14.6362 84.2219 14.4906 83.657 14.3475V14.3487Z" fill="#BA2025"/>
<path d="M99.7143 20.1033C99.2479 21.0425 98.0189 21.6732 95.952 21.6732C92.8711 21.6732 91.2402 21.0648 90.8768 18.7126H90.1533C90.1533 20.5221 90.1533 20.7677 91.0582 21.6732C91.9632 22.5787 93.7763 23.12 96.6758 23.12C98.9157 23.12 100.807 22.4963 101.927 21.2947C101.22 20.8904 100.48 20.4914 99.7146 20.1033H99.7143Z" fill="#BA2025"/>
</g>
<defs>
<clipPath id="clip0_482_4736">
<rect width="103" height="30" fill="white"/>
</clipPath>
</defs>
</svg>
